<?xml version="1.0" encoding="utf-8"?>
<!-- Generator: Adobe Illustrator 19.0.0, SVG Export Plug-In . SVG Version: 6.00 Build 0)  -->
<svg version="1.1" id="图层_1" xmlns="http://www.w3.org/2000/svg" xmlns:xlink="http://www.w3.org/1999/xlink" x="0px" y="0px"
	 viewBox="89 -90 180 180" style="enable-background:new 89 -90 180 180;" xml:space="preserve">
<style type="text/css">
	.st0{fill:#363F40;}
</style>
<g id="XMLID_611_">
	<path id="XMLID_612_" class="st0" d="M144.8,30.2l-11.7-16.4h-19.9v-54.2l17.1-17.4l25.2,23.2l27.1-28l1.1,1
		c6.7,5.8,17.3,15,20.1,17c4.2-2.7,26.1-19.6,40.2-31c0.7-0.5,1.6-0.4,2.1,0.2c0.5,0.7,0.4,1.6-0.2,2.1c-0.1,0.1-9.5,7.3-19.8,15.3
		c-21.3,16.8-21.7,16.7-22.8,16.4c-0.4-0.1-1.5-0.4-20.5-17l-27.2,28.3l-25.2-23.3l-14.2,14.4v49.8h18.4l10.1,14.2l10-14.2h14.4
		l11.1,13.6l10.5-13.6h15.2l11.3,13.7l10.5-13.7h16.4v-63c0-0.8,0.7-1.5,1.5-1.5s1.5,0.7,1.5,1.5v66.1h-18l-12,15.5l-12.8-15.5
		h-12.2l-11.9,15.4l-12.6-15.4h-11.2L144.8,30.2z"/>
</g>
<g id="XMLID_609_">
	<path id="XMLID_610_" class="st0" d="M245.7-61.6c-0.8,0-1.5-0.7-1.5-1.5v-10.6h-10.9c-0.8,0-1.5-0.7-1.5-1.5
		c0-0.8,0.7-1.5,1.5-1.5h14v13.6C247.2-62.3,246.5-61.6,245.7-61.6z"/>
</g>
<g id="XMLID_607_">
	<path id="XMLID_608_" class="st0" d="M114.7-52.7c-0.8,0-1.5-0.7-1.5-1.5v-22.5h107.7c0.8,0,1.5,0.7,1.5,1.5c0,0.8-0.7,1.5-1.5,1.5
		H116.2v19.4C116.2-53.4,115.6-52.7,114.7-52.7z"/>
</g>
<g id="XMLID_605_">
	<path id="XMLID_606_" class="st0" d="M141.1-29.3h-16.8c-0.8,0-1.5-0.7-1.5-1.5s0.7-1.5,1.5-1.5h16.8c0.8,0,1.5,0.7,1.5,1.5
		S141.9-29.3,141.1-29.3z"/>
</g>
<g id="XMLID_603_">
	<path id="XMLID_604_" class="st0" d="M141.1-21.5h-16.8c-0.8,0-1.5-0.7-1.5-1.5s0.7-1.5,1.5-1.5h16.8c0.8,0,1.5,0.7,1.5,1.5
		S141.9-21.5,141.1-21.5z"/>
</g>
<g id="XMLID_601_">
	<path id="XMLID_602_" class="st0" d="M141.1-13.7h-16.8c-0.8,0-1.5-0.7-1.5-1.5s0.7-1.5,1.5-1.5h16.8c0.8,0,1.5,0.7,1.5,1.5
		S141.9-13.7,141.1-13.7z"/>
</g>
<g id="XMLID_599_">
	<path id="XMLID_600_" class="st0" d="M189.4-29.3h-16.8c-0.8,0-1.5-0.7-1.5-1.5s0.7-1.5,1.5-1.5h16.8c0.8,0,1.5,0.7,1.5,1.5
		S190.3-29.3,189.4-29.3z"/>
</g>
<g id="XMLID_597_">
	<path id="XMLID_598_" class="st0" d="M189.4-37.1h-16.8c-0.8,0-1.5-0.7-1.5-1.5s0.7-1.5,1.5-1.5h16.8c0.8,0,1.5,0.7,1.5,1.5
		S190.3-37.1,189.4-37.1z"/>
</g>
<g id="XMLID_595_">
	<path id="XMLID_596_" class="st0" d="M189.4-21.5h-16.8c-0.8,0-1.5-0.7-1.5-1.5s0.7-1.5,1.5-1.5h16.8c0.8,0,1.5,0.7,1.5,1.5
		S190.3-21.5,189.4-21.5z"/>
</g>
<g id="XMLID_593_">
	<path id="XMLID_594_" class="st0" d="M235.6-29.3h-16.8c-0.8,0-1.5-0.7-1.5-1.5s0.7-1.5,1.5-1.5h16.8c0.8,0,1.5,0.7,1.5,1.5
		S236.5-29.3,235.6-29.3z"/>
</g>
<g id="XMLID_591_">
	<path id="XMLID_592_" class="st0" d="M235.6-37.1h-16.8c-0.8,0-1.5-0.7-1.5-1.5s0.7-1.5,1.5-1.5h16.8c0.8,0,1.5,0.7,1.5,1.5
		S236.5-37.1,235.6-37.1z"/>
</g>
<g id="XMLID_589_">
	<path id="XMLID_590_" class="st0" d="M235.6-21.5h-16.8c-0.8,0-1.5-0.7-1.5-1.5s0.7-1.5,1.5-1.5h16.8c0.8,0,1.5,0.7,1.5,1.5
		S236.5-21.5,235.6-21.5z"/>
</g>
<g id="XMLID_587_">
	<path id="XMLID_588_" class="st0" d="M189.4-13.7h-16.8c-0.8,0-1.5-0.7-1.5-1.5s0.7-1.5,1.5-1.5h16.8c0.8,0,1.5,0.7,1.5,1.5
		S190.3-13.7,189.4-13.7z"/>
</g>
<g id="XMLID_585_">
	<path id="XMLID_586_" class="st0" d="M213.1-29.3h-16.8c-0.8,0-1.5-0.7-1.5-1.5s0.7-1.5,1.5-1.5h16.8c0.8,0,1.5,0.7,1.5,1.5
		S213.9-29.3,213.1-29.3z"/>
</g>
<g id="XMLID_583_">
	<path id="XMLID_584_" class="st0" d="M213.1-21.5h-16.8c-0.8,0-1.5-0.7-1.5-1.5s0.7-1.5,1.5-1.5h16.8c0.8,0,1.5,0.7,1.5,1.5
		S213.9-21.5,213.1-21.5z"/>
</g>
<g id="XMLID_581_">
	<path id="XMLID_582_" class="st0" d="M213.1-13.7h-16.8c-0.8,0-1.5-0.7-1.5-1.5s0.7-1.5,1.5-1.5h16.8c0.8,0,1.5,0.7,1.5,1.5
		S213.9-13.7,213.1-13.7z"/>
</g>
<g id="XMLID_561_">
	<path id="XMLID_562_" class="st0" d="M235.6-13.7h-16.8c-0.8,0-1.5-0.7-1.5-1.5s0.7-1.5,1.5-1.5h16.8c0.8,0,1.5,0.7,1.5,1.5
		S236.5-13.7,235.6-13.7z"/>
</g>
<g id="XMLID_559_">
	<path id="XMLID_560_" class="st0" d="M165.9-21.5h-16.8c-0.8,0-1.5-0.7-1.5-1.5s0.7-1.5,1.5-1.5h16.8c0.8,0,1.5,0.7,1.5,1.5
		S166.7-21.5,165.9-21.5z"/>
</g>
<g id="XMLID_557_">
	<path id="XMLID_558_" class="st0" d="M165.9-13.7h-16.8c-0.8,0-1.5-0.7-1.5-1.5s0.7-1.5,1.5-1.5h16.8c0.8,0,1.5,0.7,1.5,1.5
		S166.7-13.7,165.9-13.7z"/>
</g>
<g id="XMLID_555_">
	<path id="XMLID_556_" class="st0" d="M239.4-5.9H120.8c-0.8,0-1.5-0.7-1.5-1.5s0.7-1.5,1.5-1.5h118.6c0.8,0,1.5,0.7,1.5,1.5
		S240.3-5.9,239.4-5.9z"/>
</g>
<g id="XMLID_551_">
	<path id="XMLID_552_" class="st0" d="M139.1,59.4c-3.8,0-6.8-2-8.8-5.7c-2-3.8-2.2-7.9-2.2-9.6c0-10,6.3-11.2,11-11.2
		c9.1,0,11,6.1,11,11.2C150.2,50.1,147.2,59.4,139.1,59.4z M139.1,36.1c-6.7,0-8,3-8,8.1c0,4.2,1.7,12.2,8,12.2c5.8,0,8-7.5,8-12.2
		C147.1,38.5,144.7,36.1,139.1,36.1z"/>
</g>
<g id="XMLID_549_">
	<path id="XMLID_550_" class="st0" d="M160.1,72.1c-0.8,0-1.5-0.7-1.5-1.5v-4.4l-13.7-9.4c-0.7-0.5-0.9-1.4-0.4-2.1
		c0.5-0.7,1.4-0.9,2.1-0.4l15,10.3v6C161.6,71.4,160.9,72.1,160.1,72.1z"/>
</g>
<g id="XMLID_545_">
	<path id="XMLID_546_" class="st0" d="M221.1,59.3c-8,0-11-9.3-11-15.2c0-5.1,1.9-11.2,11-11.2c4.7,0,11,1.2,11,11.2
		C232.2,51.4,228.7,59.3,221.1,59.3z M221.1,36c-5.6,0-8,2.4-8,8.1c0,4.7,2.2,12.2,8,12.2c6.3,0,8-8,8-12.2
		C229.1,39,227.8,36,221.1,36z"/>
</g>
<g id="XMLID_543_">
	<path id="XMLID_544_" class="st0" d="M124.8,76.7l-0.2-0.1c-6.8-2.4-7.5-8.6-6.9-11.6l0.1-0.6l14.9-10.2c0.7-0.5,1.6-0.3,2.1,0.4
		s0.3,1.6-0.4,2.1l-13.8,9.5c-0.1,1.5,0.1,5.7,4.8,7.5L235,73.6c4.7-1.8,4.9-5.9,4.8-7.5L226,56.6c-0.7-0.5-0.9-1.4-0.4-2.1
		c0.5-0.7,1.4-0.9,2.1-0.4l14.9,10.2l0.1,0.6c0.6,3-0.2,9.2-6.9,11.6l-0.2,0.1h-0.3L124.8,76.7z"/>
</g>
<g id="XMLID_541_">
	<path id="XMLID_542_" class="st0" d="M200.2,72c-0.8,0-1.5-0.7-1.5-1.5v-6l15-10.3c0.7-0.5,1.6-0.3,2.1,0.4s0.3,1.6-0.4,2.1
		l-13.7,9.4v4.4C201.7,71.3,201,72,200.2,72z"/>
</g>
<g id="XMLID_537_">
	<path id="XMLID_538_" class="st0" d="M179.3,59.4c-3.8,0-6.8-2-8.8-5.7c-2-3.8-2.2-7.9-2.2-9.6c0-10,6.3-11.2,11-11.2
		c9.1,0,11,6.1,11,11.2C190.3,50.1,187.3,59.4,179.3,59.4z M179.3,36.1c-6.7,0-8,3-8,8.1c0,4.2,1.7,12.2,8,12.2c5.8,0,8-7.5,8-12.2
		C187.2,38.5,184.9,36.1,179.3,36.1z"/>
</g>
<g id="XMLID_535_">
	<path id="XMLID_536_" class="st0" d="M200.2,72.1c-0.8,0-1.5-0.7-1.5-1.5v-4.4L185,56.7c-0.7-0.5-0.9-1.4-0.4-2.1
		c0.5-0.7,1.4-0.9,2.1-0.4l15,10.3v6C201.7,71.4,201,72.1,200.2,72.1z"/>
</g>
<g id="XMLID_533_">
	<path id="XMLID_534_" class="st0" d="M159.9,72.1c-0.8,0-1.5-0.7-1.5-1.5v-6l14.4-10c0.7-0.5,1.6-0.3,2.1,0.4s0.3,1.6-0.4,2.1
		l-13.1,9.1v4.4C161.5,71.4,160.8,72.1,159.9,72.1z"/>
</g>
</svg>
