<?xml version="1.0" encoding="utf-8"?>
<!-- Generator: Adobe Illustrator 19.0.0, SVG Export Plug-In . SVG Version: 6.00 Build 0)  -->
<svg version="1.1" id="图层_1" xmlns="http://www.w3.org/2000/svg" xmlns:xlink="http://www.w3.org/1999/xlink" x="0px" y="0px"
	 viewBox="0 0 180 180" style="enable-background:new 0 0 180 180;" xml:space="preserve">
<style type="text/css">
	.st0{fill:#363F40;}
</style>
<g id="XMLID_579_">
	<path id="XMLID_580_" class="st0" d="M120.6,86.1H55.1c-0.8,0-1.5-0.7-1.5-1.5s0.7-1.5,1.5-1.5h65.5c0.8,0,1.5,0.7,1.5,1.5
		S121.4,86.1,120.6,86.1z"/>
</g>
<g id="XMLID_577_">
	<path id="XMLID_578_" class="st0" d="M120.6,94.9H86.1c-0.8,0-1.5-0.7-1.5-1.5s0.7-1.5,1.5-1.5h34.4c0.8,0,1.5,0.7,1.5,1.5
		S121.4,94.9,120.6,94.9z"/>
</g>
<g id="XMLID_575_">
	<path id="XMLID_576_" class="st0" d="M120.6,103.7H92.7c-0.8,0-1.5-0.7-1.5-1.5s0.7-1.5,1.5-1.5h27.9c0.8,0,1.5,0.7,1.5,1.5
		S121.4,103.7,120.6,103.7z"/>
</g>
<g id="XMLID_573_">
	<path id="XMLID_574_" class="st0" d="M120.6,118.1h-20.2c-0.8,0-1.5-0.7-1.5-1.5s0.7-1.5,1.5-1.5h20.2c0.8,0,1.5,0.7,1.5,1.5
		S121.4,118.1,120.6,118.1z"/>
</g>
<g id="XMLID_571_">
	<path id="XMLID_572_" class="st0" d="M120.6,126.9h-20.2c-0.8,0-1.5-0.7-1.5-1.5s0.7-1.5,1.5-1.5h20.2c0.8,0,1.5,0.7,1.5,1.5
		S121.4,126.9,120.6,126.9z"/>
</g>
<g id="XMLID_569_">
	<path id="XMLID_570_" class="st0" d="M76,42.2H55.8c-0.8,0-1.5-0.7-1.5-1.5c0-0.8,0.7-1.5,1.5-1.5H76c0.8,0,1.5,0.7,1.5,1.5
		C77.6,41.5,76.9,42.2,76,42.2z"/>
</g>
<g id="XMLID_567_">
	<path id="XMLID_568_" class="st0" d="M121.3,59.7H55.8c-0.8,0-1.5-0.7-1.5-1.5s0.7-1.5,1.5-1.5h65.5c0.8,0,1.5,0.7,1.5,1.5
		S122.1,59.7,121.3,59.7z"/>
</g>
<g id="XMLID_565_">
	<path id="XMLID_566_" class="st0" d="M121.3,68.5H55.8c-0.8,0-1.5-0.7-1.5-1.5s0.7-1.5,1.5-1.5h65.5c0.8,0,1.5,0.7,1.5,1.5
		S122.1,68.5,121.3,68.5z"/>
</g>
<g id="XMLID_563_">
	<path id="XMLID_564_" class="st0" d="M121.3,77.3H55.8c-0.8,0-1.5-0.7-1.5-1.5s0.7-1.5,1.5-1.5h65.5c0.8,0,1.5,0.7,1.5,1.5
		S122.1,77.3,121.3,77.3z"/>
</g>
<g id="XMLID_529_">
	<path id="XMLID_530_" class="st0" d="M136.2,49.8H117c-0.8,0-1.5-0.7-1.5-1.5V22.7c0-0.7,0.4-1.2,1-1.4c0.6-0.2,1.3,0,1.7,0.5
		l19.2,25.6c0.3,0.5,0.4,1.1,0.1,1.6C137.3,49.5,136.8,49.8,136.2,49.8z M118.5,46.8h14.6l-14.6-19.5V46.8z"/>
</g>
<g id="XMLID_527_">
	<path id="XMLID_528_" class="st0" d="M137.9,154.8H88.4c-0.8,0-1.5-0.7-1.5-1.5c0-0.8,0.7-1.5,1.5-1.5h46.4V49l-18.6-24.8H40.1
		v61.5c0,0.8-0.7,1.5-1.5,1.5s-1.5-0.7-1.5-1.5V21.1h80.6l20.2,26.8V154.8z"/>
</g>
<g id="XMLID_523_">
	<path id="XMLID_524_" class="st0" d="M149.5,154.8c-0.7,0-1.3-0.5-1.5-1.2l-4.1-16.7c0-0.1,0-0.2,0-0.4V53.2c0-0.8,0.7-1.5,1.5-1.5
		h8.2c0.8,0,1.5,0.7,1.5,1.5v83.4c0,0.1,0,0.2,0,0.4l-4.1,16.7C150.9,154.3,150.2,154.8,149.5,154.8z M147,136.3l2.6,10.5l2.6-10.5
		V54.7H147V136.3z"/>
</g>
<g id="XMLID_521_">
	<path id="XMLID_522_" class="st0" d="M153.6,63.5h-8.2c-0.8,0-1.5-0.7-1.5-1.5c0-0.8,0.7-1.5,1.5-1.5h8.2c0.8,0,1.5,0.7,1.5,1.5
		C155.2,62.8,154.5,63.5,153.6,63.5z"/>
</g>
<g id="XMLID_519_">
	<path id="XMLID_520_" class="st0" d="M159.6,71.3h-6c-0.8,0-1.5-0.7-1.5-1.5s0.7-1.5,1.5-1.5h6c0.8,0,1.5,0.7,1.5,1.5
		S160.5,71.3,159.6,71.3z"/>
</g>
<g id="XMLID_517_">
	<path id="XMLID_518_" class="st0" d="M159.6,94.9c-0.8,0-1.5-0.7-1.5-1.5V58.2c0-0.8,0.7-1.5,1.5-1.5s1.5,0.7,1.5,1.5v35.2
		C161.2,94.3,160.5,94.9,159.6,94.9z"/>
</g>
<g id="XMLID_515_">
	<path id="XMLID_516_" class="st0" d="M79.7,139.4c-0.4,0-0.8-0.1-1.1-0.4c-0.6-0.6-0.6-1.6,0-2.2l5.4-5.4
		c5.5-5.5,8.1-16.1-2.8-27.8c-2.4-2.6-5.1-4.8-7.9-6.3c-2.5-1.4-14.1-5.4-21.8,2.1l-16.2,16.1c-0.8,0.8-0.6,1.2-0.2,1.6
		c1.6,1.6,7.1,2.4,10.3-0.7l4.1-4c3.4-3.1,7.2-2,10.8-0.9c4.1,1.2,7.9,2.4,12.4-1.2c0.7-0.5,1.6-0.4,2.1,0.3
		c0.5,0.7,0.4,1.6-0.3,2.1c-5.8,4.5-11,3-15.2,1.7c-3.6-1.1-5.8-1.6-7.8,0.2l-4,4c-4.5,4.4-11.8,3.5-14.6,0.7
		c-1.7-1.8-1.7-4.1,0.2-5.9l16.2-16.1c8.2-8,20.9-5.1,25.4-2.6c3,1.7,6,4.1,8.6,6.9c8.4,9,12.4,22.4,2.8,32.1l-5.4,5.4
		C80.5,139.3,80.1,139.4,79.7,139.4z"/>
</g>
<g id="XMLID_513_">
	<path id="XMLID_514_" class="st0" d="M14.2,134.4c-0.4,0-0.8-0.1-1.1-0.4l-3-3c-4.5-4.5-6.4-10-5.7-16c0.6-5.2,3.3-10.5,7.6-14.8
		c8.3-8.4,21.9-12,31.7-2.4l2.2,2.1c0.6,0.6,0.6,1.6,0,2.2c-0.6,0.6-1.6,0.6-2.2,0l-2.1-2.1c-6.2-6-17.4-7.8-27.4,2.4
		c-6.8,6.9-10.3,18.1-1.9,26.5l3,3c0.6,0.6,0.6,1.6,0,2.2C14.9,134.3,14.5,134.4,14.2,134.4z"/>
</g>
<g id="XMLID_511_">
	<path id="XMLID_512_" class="st0" d="M76.4,150c-1.6,0-3.3-0.7-4.9-2.3l-9.8-10.1c-0.6-0.6-0.6-1.6,0-2.2c0.6-0.6,1.6-0.6,2.2,0
		l9.8,10.1c2.3,2.4,4.2,1.1,4.9,0.4c1.5-1.4,2-4,0.4-5.7l-20.9-21.9c-0.6-0.6-0.6-1.6,0.1-2.2c0.6-0.6,1.6-0.6,2.2,0.1l20.9,21.9
		c2.9,3.1,2,7.6-0.5,10C79.6,149.3,78.1,150,76.4,150z"/>
</g>
<g id="XMLID_509_">
	<path id="XMLID_510_" class="st0" d="M68.5,157.3c-1.6,0-3.2-0.6-4.5-1.9l-10.8-11.1c-0.6-0.6-0.6-1.6,0-2.2c0.6-0.6,1.6-0.6,2.2,0
		l10.8,11.1c1.6,1.6,4,1.1,5.5-0.3c0.6-0.6,2.4-2.7-0.1-5.3L61,136.8c-0.6-0.6-0.6-1.6,0-2.2c0.6-0.6,1.6-0.6,2.2,0l10.5,10.8
		c3.3,3.4,2.4,7.3,0.1,9.6C72.4,156.5,70.4,157.3,68.5,157.3z"/>
</g>
<g id="XMLID_507_">
	<path id="XMLID_508_" class="st0" d="M59.9,163.9c-1.6,0-3.2-0.6-4.6-1.9l-5.4-5.4c-0.6-0.6-0.6-1.6,0-2.2c0.6-0.6,1.6-0.6,2.2,0
		l5.4,5.4c1.6,1.6,4,1.1,5.4-0.2c0.6-0.6,2.3-2.6-0.2-5.2c-0.6-0.6-0.6-1.6,0.1-2.2c0.6-0.6,1.6-0.6,2.2,0.1
		c3.3,3.5,2.5,7.3,0.2,9.5C63.7,163.1,61.8,163.9,59.9,163.9z"/>
</g>
<g id="XMLID_500_">
	<path id="XMLID_501_" class="st0" d="M44,171.5c-1.7,0-3.4-0.7-4.6-1.9l-0.6-0.6c-1.4-1.4-2-3.3-1.9-5.1c-2.1,0.4-4.3-0.2-5.9-1.8
		l-0.6-0.6c-1.4-1.4-2-3.2-1.9-5c-2.1,0.5-4.4-0.1-6.1-1.7l-0.6-0.6c-1.2-1.2-1.9-2.9-1.9-4.6c0-0.3,0-0.5,0-0.8
		c-2,0.3-4.1-0.3-5.7-1.8l-0.6-0.6c-2.5-2.5-2.5-6.7,0-9.2l7.4-7.4c1.2-1.2,2.9-1.9,4.6-1.9c0,0,0,0,0,0c1.7,0,3.4,0.7,4.6,1.9
		l0.6,0.6c1,1,1.7,2.3,1.8,3.7l0.9-0.9c1.2-1.2,2.9-1.9,4.6-1.9c0,0,0,0,0,0c1.7,0,3.4,0.7,4.6,1.9l0.6,0.6c1.2,1.2,1.9,2.9,1.9,4.6
		c0,1.5-0.5,2.9-1.4,4c1.4,0.2,2.7,0.8,3.8,1.8h0l0.6,0.6c1.2,1.2,1.9,2.9,1.9,4.6c0,1.3-0.4,2.5-1,3.5c1.4,0.2,2.7,0.8,3.8,1.9
		l0.6,0.6c2.5,2.5,2.5,6.7,0,9.2l-5,5C47.4,170.8,45.8,171.5,44,171.5C44,171.5,44,171.5,44,171.5z M48.4,156c-0.9,0-1.8,0.4-2.5,1
		l-5,5c-1.4,1.4-1.4,3.6,0,4.9l0.6,0.6c0.6,0.6,1.5,1,2.5,1h0c0.9,0,1.8-0.4,2.5-1l5-5c1.4-1.4,1.4-3.6,0-4.9l-0.6-0.6
		C50.2,156.3,49.3,156,48.4,156C48.4,156,48.4,156,48.4,156z M43.2,145.4c-0.9,0-1.8,0.4-2.5,1l-8.1,8.1c-1.4,1.4-1.4,3.6,0,4.9
		l0.6,0.6c1.4,1.4,3.6,1.4,4.9,0l8.1-8.1c0.6-0.7,1-1.5,1-2.5c0-0.9-0.4-1.8-1-2.5l-0.6-0.6C45,145.8,44.1,145.4,43.2,145.4z
		 M38.4,134.4C38.4,134.4,38.4,134.4,38.4,134.4c-0.9,0-1.8,0.4-2.5,1l-11.8,11.8c-0.6,0.7-1,1.5-1,2.5c0,0.9,0.4,1.8,1,2.4l0.6,0.6
		c1.3,1.3,3.6,1.3,4.9,0l11.8-11.8c0.6-0.6,1-1.5,1-2.5c0-0.9-0.4-1.8-1-2.5l-0.6-0.6C40.2,134.7,39.3,134.4,38.4,134.4z M25.8,131
		c-0.9,0-1.8,0.4-2.5,1l-7.4,7.4c-1.4,1.4-1.4,3.6,0,4.9l0.6,0.6c1.3,1.3,3.6,1.3,4.9,0l7.4-7.4c1.4-1.4,1.4-3.6,0-4.9l-0.6-0.6
		C27.6,131.3,26.8,131,25.8,131C25.8,131,25.8,131,25.8,131z"/>
</g>
</svg>
