<?xml version="1.0" encoding="utf-8"?>
<!-- Generator: Adobe Illustrator 19.0.0, SVG Export Plug-In . SVG Version: 6.00 Build 0)  -->
<svg version="1.1" id="图层_1" xmlns="http://www.w3.org/2000/svg" xmlns:xlink="http://www.w3.org/1999/xlink" x="0px" y="0px"
	 viewBox="0 0 180 180" style="enable-background:new 0 0 180 180;" xml:space="preserve">
<style type="text/css">
	.st0{fill:#363F40;}
</style>
<g id="XMLID_627_">
	<path id="XMLID_628_" class="st0" d="M162.7,126.8H83.8c-0.8,0-1.5-0.7-1.5-1.5s0.7-1.5,1.5-1.5h77.4V33.1H44.5v40.4
		c0,0.8-0.7,1.5-1.5,1.5s-1.5-0.7-1.5-1.5V31.6c0-0.8,0.7-1.5,1.5-1.5h119.8c0.8,0,1.5,0.7,1.5,1.5v93.7
		C164.2,126.1,163.5,126.8,162.7,126.8z"/>
</g>
<g id="XMLID_625_">
	<path id="XMLID_626_" class="st0" d="M172.2,135.8H78.6c-0.8,0-1.5-0.7-1.5-1.5c0-0.8,0.7-1.5,1.5-1.5h92V25H35.3v54.6
		c0,0.8-0.7,1.5-1.5,1.5s-1.5-0.7-1.5-1.5V23.5c0-0.8,0.7-1.5,1.5-1.5h138.4c0.8,0,1.5,0.7,1.5,1.5v110.8
		C173.7,135.1,173,135.8,172.2,135.8z"/>
</g>
<g id="XMLID_623_">
	<path id="XMLID_624_" class="st0" d="M162.7,97.6c-0.4,0-0.8-0.2-1.1-0.5l-26.9-30.4L117.3,95c-0.3,0.4-0.7,0.7-1.2,0.7
		c-0.5,0-1-0.2-1.3-0.6l-13.1-16.9c-0.5-0.7-0.4-1.6,0.3-2.1c0.7-0.5,1.6-0.4,2.1,0.3l11.8,15.2l17.2-28.2c0.3-0.4,0.7-0.7,1.2-0.7
		c0.5,0,1,0.1,1.3,0.5l28.3,32c0.6,0.6,0.5,1.6-0.1,2.2C163.4,97.5,163.1,97.6,162.7,97.6z"/>
</g>
<g id="XMLID_621_">
	<path id="XMLID_622_" class="st0" d="M58.1,76.5c-0.4,0-0.7-0.1-1-0.4c-0.6-0.6-0.7-1.5-0.1-2.2l23-25.7c0.3-0.3,0.7-0.5,1.2-0.5
		c0.5,0,0.9,0.2,1.2,0.6L93,62.1c0.5,0.7,0.4,1.6-0.3,2.1c-0.7,0.5-1.6,0.4-2.1-0.3L81,51.7L59.3,76C59,76.3,58.5,76.5,58.1,76.5z"
		/>
</g>
<g id="XMLID_617_">
	<path id="XMLID_618_" class="st0" d="M143,57.4c-4.6,0-8.4-3.8-8.4-8.4s3.8-8.4,8.4-8.4c4.6,0,8.4,3.8,8.4,8.4S147.7,57.4,143,57.4
		z M143,43.7c-3,0-5.4,2.4-5.4,5.4c0,3,2.4,5.4,5.4,5.4c3,0,5.4-2.4,5.4-5.4C148.4,46.1,146,43.7,143,43.7z"/>
</g>
<g id="XMLID_613_">
	<path id="XMLID_614_" class="st0" d="M121.6,78.9H81.3c-1.9,0-3.5-1.6-3.5-3.5c0-4.9,4-8.8,8.8-8.8c1.1,0,2.1,0.2,3.1,0.6
		c0.5-6.2,5.8-11.1,12.1-11.1c5.9,0,11,4.3,12,10.1c1.1-0.5,2.3-0.8,3.5-0.8c4.5,0,8.1,3.6,8.1,8.1c0,1.2-0.2,2.3-0.7,3.3
		C124.2,78.1,123,78.9,121.6,78.9z M86.6,69.6c-3.2,0-5.8,2.6-5.8,5.8c0,0.2,0.2,0.4,0.4,0.4h40.3c0.2,0,0.3-0.1,0.4-0.2
		c0.3-0.7,0.4-1.3,0.4-2.1c0-2.8-2.3-5.1-5.1-5.1c-0.9,0-1.7,0.2-2.5,0.6c-0.8,0.4-1.8,0.5-2.6,0.1c-0.8-0.4-1.4-1.2-1.5-2.1
		c-0.6-4.5-4.5-7.9-9-7.9c-4.8,0-8.8,3.8-9.1,8.6c0,0.9-0.5,1.7-1.3,2.2c-0.8,0.5-1.7,0.5-2.5,0.2C88.2,69.8,87.4,69.6,86.6,69.6z"
		/>
</g>
<g id="XMLID_463_">
	<g id="XMLID_498_">
		<path id="XMLID_499_" class="st0" d="M70.3,103c-0.8,0-1.5-0.7-1.5-1.5V89c0-0.8,0.7-1.5,1.5-1.5s1.5,0.7,1.5,1.5v12.4
			C71.8,102.3,71.1,103,70.3,103z"/>
	</g>
	<g id="XMLID_496_">
		<path id="XMLID_497_" class="st0" d="M80.2,92.1c-0.8,0-1.5-0.7-1.5-1.5c0-1.9-1.5-3.4-3.4-3.4s-3.4,1.5-3.4,3.4
			c0,0.8-0.7,1.5-1.5,1.5s-1.5-0.7-1.5-1.5c0-3.6,2.9-6.5,6.5-6.5s6.5,2.9,6.5,6.5C81.8,91.4,81.1,92.1,80.2,92.1z"/>
	</g>
	<g id="XMLID_494_">
		<path id="XMLID_495_" class="st0" d="M60.4,103c-0.8,0-1.5-0.7-1.5-1.5V89c0-0.8,0.7-1.5,1.5-1.5s1.5,0.7,1.5,1.5v12.4
			C61.9,102.3,61.2,103,60.4,103z"/>
	</g>
	<g id="XMLID_492_">
		<path id="XMLID_493_" class="st0" d="M70.3,90.5c-0.8,0-1.5-0.7-1.5-1.5c0-1.9-1.5-3.4-3.4-3.4c-1.9,0-3.4,1.5-3.4,3.4
			c0,0.8-0.7,1.5-1.5,1.5s-1.5-0.7-1.5-1.5c0-3.6,2.9-6.5,6.5-6.5c3.6,0,6.5,2.9,6.5,6.5C71.8,89.8,71.1,90.5,70.3,90.5z"/>
	</g>
	<g id="XMLID_490_">
		<path id="XMLID_491_" class="st0" d="M50.4,103c-0.8,0-1.5-0.7-1.5-1.5V89c0-0.8,0.7-1.5,1.5-1.5S52,88.2,52,89v12.4
			C52,102.3,51.3,103,50.4,103z"/>
	</g>
	<g id="XMLID_488_">
		<path id="XMLID_489_" class="st0" d="M60.4,90.5c-0.8,0-1.5-0.7-1.5-1.5c0-1.9-1.5-3.4-3.4-3.4c-1.9,0-3.4,1.5-3.4,3.4
			c0,0.8-0.7,1.5-1.5,1.5s-1.5-0.7-1.5-1.5c0-3.6,2.9-6.5,6.5-6.5c3.6,0,6.5,2.9,6.5,6.5C61.9,89.8,61.2,90.5,60.4,90.5z"/>
	</g>
	<g id="XMLID_486_">
		<path id="XMLID_487_" class="st0" d="M40.5,110.9h-4.3c-0.8,0-1.5-0.7-1.5-1.5s0.7-1.5,1.5-1.5H39V89c0-0.8,0.7-1.5,1.5-1.5
			S42,88.2,42,89v20.4C42,110.3,41.4,110.9,40.5,110.9z"/>
	</g>
	<g id="XMLID_484_">
		<path id="XMLID_485_" class="st0" d="M50.4,90.5c-0.8,0-1.5-0.7-1.5-1.5c0-1.9-1.5-3.4-3.4-3.4S42,87.1,42,89
			c0,0.8-0.7,1.5-1.5,1.5S39,89.8,39,89c0-3.6,2.9-6.5,6.5-6.5S52,85.4,52,89C52,89.8,51.3,90.5,50.4,90.5z"/>
	</g>
	<g id="XMLID_480_">
		<path id="XMLID_481_" class="st0" d="M40.5,106.5H21.4c-0.6,0-1.2-0.4-1.4-0.9c-0.2-0.6-0.1-1.2,0.3-1.7l6.2-6.2l-6.2-6.2
			c-0.4-0.4-0.6-1.1-0.3-1.7c0.2-0.6,0.8-0.9,1.4-0.9h19.1c0.8,0,1.5,0.7,1.5,1.5V105C42,105.9,41.4,106.5,40.5,106.5z M25.1,103.5
			H39V92.1H25.1l4.6,4.6c0.3,0.3,0.4,0.7,0.4,1.1s-0.2,0.8-0.4,1.1L25.1,103.5z"/>
	</g>
	<g id="XMLID_478_">
		<path id="XMLID_479_" class="st0" d="M40.5,99.3H28.7c-0.8,0-1.5-0.7-1.5-1.5s0.7-1.5,1.5-1.5h11.8c0.8,0,1.5,0.7,1.5,1.5
			S41.4,99.3,40.5,99.3z"/>
	</g>
	<g id="XMLID_476_">
		<path id="XMLID_477_" class="st0" d="M90.6,99.3H80.3c-0.8,0-1.5-0.7-1.5-1.5s0.7-1.5,1.5-1.5h10.3c0.8,0,1.5,0.7,1.5,1.5
			S91.5,99.3,90.6,99.3z"/>
	</g>
	<g id="XMLID_474_">
		<path id="XMLID_475_" class="st0" d="M21.4,106.5c-0.2,0-0.4,0-0.6-0.1L4.9,99.2C4.3,98.9,4,98.4,4,97.8c0-0.6,0.3-1.1,0.9-1.4
			l15.9-7.2c0.8-0.3,1.7,0,2,0.8c0.3,0.8,0,1.7-0.8,2L9.2,97.8l12.9,5.8c0.8,0.3,1.1,1.3,0.8,2C22.6,106.2,22,106.5,21.4,106.5z"/>
	</g>
	<g id="XMLID_472_">
		<path id="XMLID_473_" class="st0" d="M100.2,106.5l-19.9,0c-0.8,0-1.5-0.7-1.5-1.5s0.7-1.5,1.5-1.5l0,0l19.9,0
			c0.8,0,1.5-0.7,1.5-1.5l0-8.4c0-0.8-0.7-1.5-1.5-1.5l-19.9,0c-0.8,0-1.5-0.7-1.5-1.5s0.7-1.5,1.5-1.5l0,0l19.9,0
			c2.5,0,4.6,2.1,4.6,4.6l0,8.4C104.8,104.5,102.7,106.5,100.2,106.5z"/>
	</g>
	<g id="XMLID_470_">
		<path id="XMLID_471_" class="st0" d="M90.6,106.5c-0.8,0-1.5-0.7-1.5-1.5V90.5c0-0.8,0.7-1.5,1.5-1.5s1.5,0.7,1.5,1.5V105
			C92.2,105.9,91.5,106.5,90.6,106.5z"/>
	</g>
	<g id="XMLID_468_">
		<path id="XMLID_469_" class="st0" d="M95.7,106.5c-0.8,0-1.5-0.7-1.5-1.5V90.5c0-0.8,0.7-1.5,1.5-1.5s1.5,0.7,1.5,1.5V105
			C97.2,105.9,96.6,106.5,95.7,106.5z"/>
	</g>
	<g id="XMLID_466_">
		<path id="XMLID_467_" class="st0" d="M43.8,150.1c-0.8,0-1.5-0.7-1.5-1.5V131c-2.3-1.8-10.5-7.9-12.4-9.3c-2.2-1.8-2.1-5-2.1-5.6
			v-11c0-0.8,0.7-1.5,1.5-1.5s1.5,0.7,1.5,1.5v11.1c0,0,0,0.1,0,0.1c0,0.6,0,2.4,1,3.1c2.1,1.7,12.8,9.7,12.9,9.7
			c0.4,0.3,0.6,0.7,0.6,1.2v18.3C45.3,149.4,44.6,150.1,43.8,150.1z"/>
	</g>
	<g id="XMLID_464_">
		<path id="XMLID_465_" class="st0" d="M69.6,150.1c-0.8,0-1.5-0.7-1.5-1.5v-18.5c0-0.5,0.3-1,0.7-1.3c2.8-1.7,9.9-7.1,9.9-12.2v-26
			c0-0.8,0.7-1.5,1.5-1.5s1.5,0.7,1.5,1.5v26c0,6.8-8.1,12.7-10.7,14.4v17.7C71.1,149.4,70.4,150.1,69.6,150.1z"/>
	</g>
</g>
</svg>
